HIERARCHY
ROOT Hips
{
	OFFSET 0.00000 0.00000 0.00000
	CHANNELS 6 Xposition Yposition Zposition Zrotation Yrotation Xrotation 
	JOINT LHipJoint
	{
		OFFSET 0 0 0
		CHANNELS 3 Zrotation Yrotation Xrotation
		JOINT LeftHip
		{
			OFFSET 1.62329 -1.80800 0.67318
			CHANNELS 3 Zrotation Yrotation Xrotation
			JOINT LeftKnee
			{
				OFFSET 2.57139 -7.06484 0.00000
				CHANNELS 3 Zrotation Yrotation Xrotation
				JOINT LeftAnkle
				{
					OFFSET 2.52017 -6.92413 0.00000
					CHANNELS 3 Zrotation Yrotation Xrotation
					JOINT LeftToe
					{
						OFFSET 0.23295 -0.64001 2.10214
						CHANNELS 3 Zrotation Yrotation Xrotation
						End Site
						{
							OFFSET 0.00000 -0.00000 1.10139
						}
					}
				}
			}
		}
	}
	JOINT RHipJoint
	{
		OFFSET 0 0 0
		CHANNELS 3 Zrotation Yrotation Xrotation
		JOINT RightHip
		{
			OFFSET -1.48061 -1.80800 0.67318
			CHANNELS 3 Zrotation Yrotation Xrotation
			JOINT RightKnee
			{
				OFFSET -2.63258 -7.23296 0.00000
				CHANNELS 3 Zrotation Yrotation Xrotation
				JOINT RightAnkle
				{
					OFFSET -2.54779 -7.00000 0.00000
					CHANNELS 3 Zrotation Yrotation Xrotation
					JOINT RightToe
					{
						OFFSET -0.23067 -0.63376 2.12161
						CHANNELS 3 Zrotation Yrotation Xrotation
						End Site
						{
							OFFSET -0.00000 -0.00000 1.11000
						}
					}
				}
			}
		}
	}
	JOINT lowerback
	{
		OFFSET 0 0 0
		CHANNELS 3 Zrotation Yrotation Xrotation
		JOINT Chest
		{
			OFFSET -0.02108 2.07573 -0.16981
			CHANNELS 3 Zrotation Yrotation Xrotation
			JOINT Chest2
			{
				OFFSET 0.05070 2.08439 -0.03141
				CHANNELS 3 Zrotation Yrotation Xrotation
				JOINT lowerneck
				{
					OFFSET 0 0 0
					CHANNELS 3 Zrotation Yrotation Xrotation
					JOINT Neck
					{
						OFFSET -0.10731 1.60408 0.31370
						CHANNELS 3 Zrotation Yrotation Xrotation
						JOINT Head
						{
							OFFSET 0.08411 1.65679 -0.30822
							CHANNELS 3 Zrotation Yrotation Xrotation
							End Site
							{
								OFFSET 0.03911 1.69149 -0.14146
							}
						}
					}
				}
				JOINT LeftCollar
				{
					OFFSET 0 0 0
					CHANNELS 3 Zrotation Yrotation Xrotation
					JOINT LeftShoulder
					{
						OFFSET 3.52315 0.73219 -0.54694
CHANNELS 3 Zrotation Xrotation Yrotation
						JOINT LeftElbow
						{
OFFSET 0 -5.324620 -0.000000
CHANNELS 3 Zrotation Xrotation Yrotation
							JOINT LeftWrist
							{
OFFSET 0 -3.484020 -0.000000
CHANNELS 3 Zrotation Xrotation Yrotation
								JOINT lhand
								{
									OFFSET 0 0 0
CHANNELS 3 Zrotation Xrotation Yrotation
									JOINT LFingers
									{
OFFSET 0 -0.572480 -0.000000
CHANNELS 3 Zrotation Xrotation Yrotation
										End Site
										{
OFFSET 0 -0.461540 -0.000000
										}
									}
								}
								JOINT LThumb
								{
OFFSET 0 0.000000 0.000000
CHANNELS 3 Zrotation Xrotation Yrotation
									End Site
									{
OFFSET 0 -0.468590 0.468590
									}
								}
							}
						}
					}
				}
				JOINT RightCollar
				{
					OFFSET 0 0 0
					CHANNELS 3 Zrotation Yrotation Xrotation
					JOINT RightShoulder
					{
						OFFSET -3.41766 0.93592 -0.10019
CHANNELS 3 Zrotation Xrotation Yrotation
						JOINT RightElbow
						{
OFFSET 0 -5.335890 -0.000000
CHANNELS 3 Zrotation Xrotation Yrotation
							JOINT RightWrist
							{
OFFSET 0 -3.641340 -0.000000
CHANNELS 3 Zrotation Xrotation Yrotation
								JOINT rhand
								{
									OFFSET 0 0 0
CHANNELS 3 Zrotation Xrotation Yrotation
									JOINT RFingers
									{
OFFSET 0 -0.734810 -0.000000
CHANNELS 3 Zrotation Xrotation Yrotation
										End Site
										{
OFFSET 0 -0.592420 -0.000000
										}
									}
								}
								JOINT RThumb
								{
OFFSET 0 0.000000 0.000000
CHANNELS 3 Zrotation Xrotation Yrotation
									End Site
									{
OFFSET 0 -0.601470 0.601470
									}
								}
							}
						}
					}
				}
			}
		}
	}
}
MOTION
Frames: 12
Frame Time: .0083333
5.3588 17.7273 -4.9215 16.1175 45.6893 28.6600 0.0000 0.0000 0.0000 -31.5877 -5.2696 -28.0018 1.4843 7.6973 21.7985 -0.1286 -9.8811 -4.4721 0.2051 -2.9158 -8.0444 0.0000 0.0000 0.0000 5.5598 2.9565 -38.2092 -5.3889 -13.8088 42.4767 -0.8885 7.7670 -16.8855 -0.6960 -5.3329 14.8605 7.0017 4.7943 20.8497 10.0410 8.3068 9.6140 5.0327 4.2678 -1.6574 -8.8480 -16.6536 -10.6598 13.2456 -24.1184 22.5221 2.5307 -10.1510 11.9230 -0.0000 0.0000 0.0000 5.7836 -34.9392 -48.6072 138.0963 -49.1582 100.1324 16.0727 -28.2606 -14.5407 0.0 0.0 0.0 -7.1250 0.0 0.0 -10.6057 44.8194 -0.0478 -0.0000 0.0000 0.0000 -24.7653 -52.445 17.6002 -17.0540 -26.9289 -4.1118 -29.4102 30.4005 -15.9654 0.0 0.0 0.0 7.1250 0.0 -0.0 -1.1210 11.8014 -0.8682
5.3238 17.7445 -4.9051 16.3269 46.0549 28.9590 0.0000 0.0000 0.0000 -31.3417 -5.6041 -27.7423 1.4179 7.5307 21.2975 -0.1569 -9.9758 -3.9334 0.1167 -2.2021 -6.0646 0.0000 0.0000 0.0000 5.6594 2.9122 -38.2254 -5.3435 -13.7605 42.2865 -0.9092 7.5025 -17.0562 -0.7201 -5.4227 15.1181 7.0387 4.7579 20.8306 10.0137 8.2768 9.5012 4.9828 4.2515 -1.7605 -8.8376 -16.6458 -10.5526 13.2680 -24.1205 22.5849 2.5458 -10.1480 11.9293 0.0000 -0.0000 0.0000 5.5102 -34.9486 -48.7966 137.2049 -49.6414 99.4555 16.1595 -29.1376 -14.6385 0.0 0.0 0.0 -7.1250 0.0 0.0 -10.5523 44.9289 -0.0187 0.0000 -0.0000 0.0000 -24.7287 -50.8952 16.1219 -17.7523 -27.8389 -4.433 -29.1923 32.2451 -15.9924 0.0 0.0 0.0 7.1250 0.0 -0.0 -0.9737 11.8068 -0.754
5.2904 17.7584 -4.8886 16.5284 46.3699 29.3143 0.0000 0.0000 0.0000 -31.2097 -5.7076 -27.6823 1.3575 7.3750 20.8314 -0.1848 -10.2392 -3.5824 0.0938 -1.9754 -5.4376 0.0000 0.0000 0.0000 5.7549 2.8847 -38.3099 -5.3016 -13.7156 42.1100 -0.9357 7.1903 -17.2801 -0.7209 -5.4254 15.1260 6.9263 4.6619 20.6973 10.0365 8.1265 9.4712 5.1115 4.1774 -1.7387 -8.9885 -16.5739 -10.6907 13.2616 -24.0188 22.8075 2.5702 -10.0921 12.0498 -0.0000 0.0000 0.0000 5.2667 -34.9474 -48.6252 136.3335 -50.0982 98.7892 15.827 -30.1359 -14.5942 0.0 0.0 0.0 -7.1250 0.0 0.0 -10.8423 44.8447 -0.0421 -0.0000 0.0000 0.0000 -25.6999 -49.6922 15.5669 -18.4344 -28.7099 -4.7561 -28.8798 31.5544 -15.9527 0.0 0.0 0.0 7.1250 0.0 -0.0 -0.7710 11.9017 -0.5955
5.2573 17.7647 -4.8690 16.6436 46.6726 29.5982 0.0000 0.0000 0.0000 -31.0268 -5.7043 -27.6870 1.3090 7.2473 20.4501 -0.2122 -10.5813 -3.3518 0.1154 -2.1903 -6.0319 0.0000 0.0000 0.0000 5.9208 2.8627 -38.3830 -5.2626 -13.6736 41.9452 -0.9636 6.9317 -17.5237 -0.7392 -5.4924 15.3184 6.8629 4.5631 20.5916 10.0407 7.9800 9.4745 5.1925 4.1070 -1.6840 -9.1683 -16.5162 -10.9223 13.4419 -23.9658 22.9153 2.6451 -10.0436 12.1853 0.0000 -0.0000 0.0000 5.1138 -35.078 -48.4166 135.4998 -50.5213 98.1477 15.5568 -31.2013 -14.7228 0.0 0.0 0.0 -7.1250 0.0 0.0 -11.1211 44.9428 -0.0159 0.0000 -0.0000 0.0000 -25.6808 -48.2094 15.3505 -19.3482 -29.8491 -5.203 -28.7577 31.0259 -15.6273 0.0 0.0 0.0 7.1250 0.0 -0.0 -0.7246 12.2843 -0.5539
5.2233 17.7675 -4.8470 16.8168 47.0130 29.8466 0.0000 0.0000 0.0000 -30.8979 -5.5838 -27.6513 1.2625 7.1223 20.0783 -0.2305 -10.9468 -3.3896 0.1663 -2.6274 -7.2430 0.0000 0.0000 0.0000 6.0736 2.8046 -38.3808 -5.2280 -13.6361 41.7987 -0.9962 6.6944 -17.8119 -0.7360 -5.4810 15.2857 6.8852 4.4514 20.6348 9.9639 7.8550 9.3535 5.1124 4.0432 -1.8181 -9.3189 -16.4378 -10.7592 13.7055 -23.8937 22.8661 2.7837 -10.0071 12.1886 -0.0000 -0.0000 0.0000 5.0782 -34.9726 -48.4034 134.7505 -50.8901 97.5678 14.949 -32.3358 -14.3821 0.0 0.0 0.0 -7.1250 0.0 0.0 -11.5796 44.5285 -0.1367 -0.0000 -0.0000 0.0000 -26.8525 -46.6967 15.6211 -20.1411 -30.812 -5.6034 -28.974 28.653 -15.1446 0.0 0.0 0.0 7.1250 0.0 -0.0 -0.9194 12.7905 -0.6931
5.1904 17.7714 -4.8294 16.9979 47.4622 30.1738 0.0000 0.0000 0.0000 -30.7305 -5.5754 -27.6334 1.2132 6.9871 19.6771 -0.2325 -11.2288 -3.7113 0.2827 -3.4193 -9.4485 0.0000 0.0000 0.0000 6.2627 2.6629 -38.4733 -5.1954 -13.6005 41.6600 -1.0282 6.5021 -18.0959 -0.7467 -5.5196 15.3966 7.1201 4.3293 20.6689 9.8093 7.7558 9.1355 4.8209 3.9930 -2.0151 -9.3071 -16.4235 -10.6778 13.7523 -23.9072 23.0078 2.8028 -10.0000 12.2368 -0.0000 -0.0000 0.0000 5.1707 -34.7822 -48.6702 134.2046 -51.1522 97.1435 14.4922 -33.2449 -13.8541 0.0 0.0 0.0 -7.1250 0.0 0.0 -11.8504 43.9464 -0.3128 -0.0000 -0.0000 0.0000 -25.7453 -44.7642 15.0412 -21.2660 -32.1375 -6.1908 -29.2728 29.1357 -15.029 0.0 0.0 0.0 7.1250 0.0 -0.0 -1.1313 12.8741 -0.8509
5.1599 17.7790 -4.8121 17.2733 47.9184 30.5339 0.0000 0.0000 0.0000 -30.5850 -5.6620 -27.4746 1.1664 6.8558 19.2889 -0.2164 -11.5265 -4.4176 0.5245 -4.6414 -12.8887 0.0000 0.0000 0.0000 6.3757 2.5177 -38.4971 -5.1599 -13.5616 41.5089 -1.0599 6.3306 -18.3771 -0.7823 -5.6468 15.7630 7.2185 4.1988 20.6344 9.6988 7.6112 8.9875 4.6725 3.9210 -2.1248 -9.2386 -16.4010 -10.5921 13.7284 -23.8865 23.0430 2.7975 -9.9904 12.2176 0.0000 0.0000 0.0000 5.2023 -34.6392 -48.8756 133.8603 -51.3148 96.875 14.2919 -34.0343 -13.684 0.0 0.0 0.0 -7.1250 0.0 0.0 -11.9849 43.7537 -0.3743 0.0000 0.0000 0.0000 -24.9433 -42.8773 14.3181 -22.5732 -33.6188 -6.9005 -29.1569 30.1674 -14.8698 0.0 0.0 0.0 7.1250 0.0 -0.0 -1.0704 13.0705 -0.8008
5.1274 17.7853 -4.7899 17.6759 48.2867 30.9593 0.0000 0.0000 0.0000 -30.5111 -5.7717 -27.2450 1.1238 6.7336 18.9285 -0.1899 -11.8668 -5.3033 0.7378 -5.4875 -15.3043 0.0000 0.0000 0.0000 6.3426 2.5108 -38.4480 -5.1227 -13.5207 41.3501 -1.1038 6.1225 -18.7648 -0.8180 -5.7712 16.1219 7.0033 4.0908 20.5284 9.6565 7.4191 9.0258 4.7972 3.8281 -2.0443 -9.1024 -16.3403 -10.8448 13.6664 -23.7976 22.9671 2.7559 -9.9423 12.1962 0.0000 -0.0000 0.0000 5.1049 -34.7707 -48.8987 133.5612 -51.4542 96.6413 13.9953 -34.8575 -13.5689 0.0 0.0 0.0 -7.1250 0.0 0.0 -12.2192 43.6062 -0.4271 0.0000 -0.0000 0.0000 -25.0067 -41.5684 13.5959 -23.7669 -34.9168 -7.5727 -28.8977 30.9897 -14.6582 0.0 0.0 0.0 7.1250 0.0 -0.0 -0.9183 13.3469 -0.6816
5.0927 17.7877 -4.7710 17.9017 48.7332 31.2498 0.0000 0.0000 0.0000 -30.2529 -5.9644 -27.0053 1.0818 6.6108 18.5673 -0.1657 -12.1467 -6.0078 0.8850 -5.9968 -16.7752 0.0000 0.0000 0.0000 6.4542 2.5622 -38.3917 -5.0843 -13.4781 41.1856 -1.1576 5.8978 -19.2352 -0.8828 -5.9897 16.7545 6.9088 3.9179 20.4857 9.6329 7.1882 8.9316 4.8721 3.7127 -2.1249 -9.0985 -16.1892 -10.6074 13.7201 -23.5779 22.7691 2.8386 -9.8692 12.0499 0.0000 -0.0000 0.0000 5.0968 -34.5648 -48.7844 133.4297 -51.515 96.5384 13.5488 -35.7686 -13.4775 0.0 0.0 0.0 -7.1250 0.0 0.0 -12.5923 43.4668 -0.4846 0.0000 -0.0000 0.0000 -25.6659 -40.3401 13.2789 -24.7762 -35.9744 -8.1581 -28.6166 30.7409 -14.4779 0.0 0.0 0.0 7.1250 0.0 -0.0 -0.7472 13.5903 -0.5507
5.0586 17.7915 -4.7548 18.0714 49.2001 31.5501 0.0000 0.0000 0.0000 -29.9137 -6.2212 -26.8326 1.0476 6.5087 18.2679 -0.1411 -12.1605 -6.4289 0.9720 -6.2765 -17.5887 0.0000 0.0000 0.0000 6.6496 2.5335 -38.4346 -5.0448 -13.4340 41.0157 -1.1959 5.5136 -19.5800 -0.8746 -5.9625 16.6755 6.8829 3.7374 20.3887 9.5852 6.9503 8.8373 4.8887 3.5958 -2.1653 -9.1802 -16.0655 -10.4251 13.9507 -23.4317 22.6004 2.9733 -9.8101 11.9764 -0.0000 -0.0000 0.0000 5.2257 -34.3921 -48.583 133.4632 -51.4995 96.5646 13.238 -36.7293 -13.5829 0.0 0.0 0.0 -7.1250 0.0 0.0 -12.8964 43.5386 -0.4735 -0.0000 -0.0000 0.0000 -24.3267 -38.449 13.0031 -26.4030 -37.6039 -9.1325 -28.7002 31.7625 -14.194 0.0 0.0 0.0 7.1250 0.0 -0.0 -0.8314 13.8959 -0.6075
5.0263 17.8005 -4.7380 18.3304 49.6406 31.8970 0.0000 0.0000 0.0000 -29.6713 -6.3448 -26.6807 1.0292 6.4533 18.1054 -0.1004 -11.8128 -6.7803 1.0265 -6.4450 -18.0812 0.0000 0.0000 0.0000 6.8128 2.3721 -38.4597 -5.0001 -13.3839 40.8230 -1.2209 5.1581 -19.8174 -0.8567 -5.9026 16.5020 6.8193 3.6008 20.2883 9.5214 6.7529 8.8216 4.9040 3.5009 -2.1222 -9.2719 -16.0336 -10.5640 14.2257 -23.4336 22.5305 3.0684 -9.7877 12.0334 -0.0000 0.0000 0.0000 5.3166 -34.3724 -48.5016 133.5831 -51.444 96.6584 13.0307 -37.5677 -13.7979 0.0 0.0 0.0 -7.1250 0.0 0.0 -13.1389 43.73 -0.4195 -0.0000 0.0000 0.0000 -23.9729 -36.9587 12.5708 -27.8062 -38.9372 -10.0016 -28.5563 31.9156 -14.0138 0.0 0.0 0.0 7.1250 0.0 -0.0 -0.7516 14.1182 -0.5456
4.9932 17.8150 -4.7242 18.6463 50.0878 32.2440 0.0000 0.0000 0.0000 -29.4922 -6.4548 -26.5136 1.0244 6.4386 18.0626 -0.0304 -11.0231 -7.2610 1.0236 -6.4362 -18.0553 0.0000 0.0000 0.0000 6.9451 2.1626 -38.4343 -4.9485 -13.3255 40.5996 -1.2420 4.8716 -20.0196 -0.9039 -6.0589 16.9555 6.6628 3.3760 20.2279 9.4964 6.4337 8.8293 5.0382 3.3455 -2.0839 -9.3867 -15.8968 -10.7713 14.3458 -23.2618 22.5894 3.1438 -9.6956 12.1080 0.0000 -0.0000 0.0000 5.3673 -34.2726 -48.1552 133.6885 -51.395 96.7408 12.7824 -38.217 -14.0472 0.0 0.0 0.0 -7.1250 0.0 0.0 -13.4288 43.9502 -0.3547 0.0000 -0.0000 0.0000 -24.3172 -35.8899 12.4241 -28.9753 -39.9987 -10.7448 -28.0395 31.6188 -13.8943 0.0 0.0 0.0 7.1250 0.0 -0.0 -0.4125 14.3236 -0.2977
